<?xml version="1.0" standalone="no"?>
<!DOCTYPE svg PUBLIC "-//W3C//DTD SVG 20010904//EN"
 "http://www.w3.org/TR/2001/REC-SVG-20010904/DTD/svg10.dtd">
<svg version="1.0" xmlns="http://www.w3.org/2000/svg"
 width="318.000000pt" height="549.000000pt" viewBox="0 0 318.000000 549.000000"
 preserveAspectRatio="xMidYMid meet">
<metadata>
Created by potrace 1.16, written by Peter Selinger 2001-2019
</metadata>
<g transform="translate(0.000000,549.000000) scale(0.100000,-0.100000)"
fill="#000000" stroke="none">
<path d="M1 5180 c1 -259 3 -310 15 -310 8 0 14 -5 14 -12 0 -9 3 -9 12 0 8 8
8 15 -2 27 -7 8 -9 15 -4 16 5 0 17 2 26 4 10 2 18 -1 18 -6 0 -5 -4 -9 -10
-9 -5 0 -10 -7 -10 -15 0 -8 5 -15 10 -15 6 0 10 -5 10 -11 0 -6 -6 -9 -14 -6
-8 3 -17 1 -19 -6 -3 -9 -8 -9 -18 1 -19 18 -29 15 -28 -10 0 -13 3 -18 5 -11
4 9 11 9 30 1 20 -9 22 -14 11 -26 -10 -13 -9 -14 2 -7 11 6 13 1 9 -24 -4
-24 1 -37 18 -54 13 -12 24 -30 24 -39 0 -25 25 -22 43 5 8 12 18 19 22 15 5
-4 -4 -19 -18 -32 -34 -31 -34 -42 1 -74 18 -17 21 -24 9 -19 -10 4 -25 7 -33
7 -8 0 -11 6 -7 17 5 13 2 15 -15 11 -16 -5 -22 -1 -23 10 -1 10 -4 6 -8 -8
-5 -14 -5 -29 0 -34 10 -11 0 -38 -12 -30 -5 3 -7 10 -4 15 4 5 2 9 -3 9 -13
0 -22 -52 -15 -81 6 -23 6 -23 -11 -6 -10 9 -19 17 -22 17 -2 0 -3 -126 -3
-280 1 -261 3 -280 19 -280 22 0 34 -26 14 -34 -8 -3 -14 1 -14 9 0 8 -4 15
-10 15 -5 0 -10 -20 -10 -45 0 -36 3 -43 15 -39 13 5 13 9 3 22 -12 13 -10 14
10 3 16 -9 20 -16 14 -24 -11 -14 -4 -77 9 -77 5 0 8 3 8 8 -3 19 2 22 17 7
20 -19 32 -12 15 9 -10 11 -9 21 4 45 10 20 12 31 4 31 -6 0 -8 7 -5 16 3 8 2
13 -3 10 -5 -4 -7 3 -4 14 3 11 10 20 15 20 5 0 6 -6 2 -12 -5 -8 0 -7 11 2
10 8 16 10 13 5 -7 -11 8 -43 15 -35 2 3 7 22 11 43 5 26 4 37 -3 32 -7 -4 -8
0 -4 11 5 15 7 14 17 -2 5 -11 11 -25 12 -32 4 -22 14 -27 24 -12 6 8 10 10
10 4 0 -6 7 -11 15 -11 8 0 15 3 15 6 0 3 10 6 23 6 19 0 22 -5 22 -37 -1 -34
-13 -66 -16 -40 -6 53 -49 85 -49 36 0 -17 -4 -21 -20 -17 -11 3 -20 10 -20
15 0 5 4 7 9 3 5 -3 12 -1 15 4 4 5 -2 8 -11 6 -10 -2 -21 -4 -25 -4 -10 -1
-10 -28 0 -34 4 -2 1 -2 -5 -1 -7 2 -13 -2 -13 -9 0 -8 -4 -6 -10 3 -8 13 -10
13 -10 -2 0 -9 -6 -19 -13 -21 -9 -4 -9 -6 1 -6 6 -1 12 -5 12 -11 0 -5 -7 -7
-15 -4 -8 4 -15 1 -15 -5 0 -6 7 -11 15 -11 8 0 15 -5 15 -11 0 -5 -4 -8 -9
-5 -5 3 -11 0 -14 -8 -4 -9 -14 -12 -26 -9 -31 8 -26 -15 6 -30 42 -18 61 -57
28 -57 -8 0 -15 -8 -15 -19 0 -10 -11 -26 -24 -36 -19 -14 -22 -23 -16 -40 5
-12 4 -28 0 -35 -5 -8 -6 -19 -3 -25 4 -5 3 -7 -2 -3 -4 4 -14 0 -23 -8 -12
-13 -16 -13 -23 -2 -6 9 -9 7 -9 -9 0 -24 14 -31 25 -13 8 12 25 13 44 1 13
-8 13 -12 0 -27 -11 -13 -11 -18 -1 -21 22 -8 12 -20 -13 -16 -23 5 -24 6 -10
34 14 25 14 28 0 23 -8 -4 -15 -11 -15 -16 0 -6 -6 -8 -14 -5 -12 5 -14 -41
-15 -284 0 -159 3 -289 7 -289 13 0 11 -34 -2 -43 -6 -5 -1 -5 11 -2 18 5 22
3 17 -10 -4 -9 -12 -14 -19 -12 -6 3 -12 -1 -12 -8 0 -10 5 -11 18 -4 25 13
33 11 20 -5 -6 -7 -8 -27 -5 -45 4 -19 10 -28 14 -21 4 7 10 -2 15 -22 4 -18
9 -27 12 -20 2 6 9 12 14 12 6 0 7 -4 4 -10 -3 -5 1 -10 9 -10 9 0 16 -4 16
-9 0 -5 3 -16 6 -25 4 -11 1 -16 -10 -16 -9 0 -16 -7 -16 -15 0 -8 -10 -25
-22 -37 -15 -15 -21 -32 -20 -58 2 -28 -3 -41 -23 -58 -15 -13 -25 -17 -25 -9
1 17 26 48 34 40 3 -4 1 8 -5 25 -6 19 -16 30 -22 26 -7 -3 -1 4 13 15 14 11
19 21 13 21 -7 0 -13 6 -13 14 0 8 -6 17 -12 19 -8 3 -6 6 5 6 20 1 23 17 5
24 -8 3 -6 6 5 6 11 1 17 9 17 24 -1 21 -1 22 -15 3 -8 -11 -15 -14 -15 -8 0
7 -4 12 -8 12 -4 0 -9 -34 -9 -75 -1 -64 1 -75 15 -75 15 -1 15 -2 2 -13 -16
-13 -26 -87 -12 -87 4 0 14 6 21 13 10 9 15 9 18 0 2 -7 11 -9 19 -6 16 6 19
-12 4 -22 -16 -10 -12 -38 4 -32 10 4 13 1 10 -8 -4 -10 -12 -11 -35 -3 -28 9
-28 11 -12 23 22 16 15 26 -14 19 -20 -5 -20 -11 -21 -295 -1 -159 3 -287 7
-284 11 6 23 -23 15 -36 -3 -5 -10 -7 -15 -4 -5 4 -9 -10 -9 -29 0 -20 5 -36
11 -36 6 0 9 7 5 15 -3 8 0 15 7 15 8 0 6 4 -3 10 -8 5 -10 10 -5 10 6 0 17
-5 25 -11 11 -8 12 -12 2 -16 -6 -2 -12 -13 -12 -24 0 -10 -6 -18 -12 -16 -7
1 -14 -9 -16 -23 -2 -14 0 -22 4 -17 4 4 17 1 30 -7 24 -17 36 -12 27 12 -5
10 -3 13 6 8 7 -5 10 -14 7 -22 -3 -8 0 -14 5 -14 7 0 9 -11 6 -26 l-5 -26 22
24 c11 13 18 19 13 12 -9 -13 1 -44 14 -44 5 0 9 5 9 12 0 6 3 9 6 6 7 -8 -25
-58 -38 -58 -6 0 -7 7 -4 16 3 8 2 13 -2 10 -9 -5 -38 29 -31 36 7 8 -53 58
-62 52 -17 -10 -7 -74 12 -74 4 0 6 8 2 18 -5 16 -5 16 12 1 18 -17 27 -89 12
-89 -5 0 -7 -9 -4 -19 3 -12 -1 -22 -9 -25 -8 -3 -14 1 -14 9 0 8 -4 15 -10
15 -5 0 -10 -24 -9 -52 0 -29 3 -47 6 -40 2 6 11 12 19 12 9 0 12 5 9 10 -3 6
-1 10 4 10 6 0 11 8 11 17 0 9 3 13 7 9 4 -4 -1 -22 -11 -40 -17 -32 -17 -36
-1 -70 10 -20 22 -33 27 -30 6 4 5 -3 -1 -15 -11 -19 -8 -25 12 -22 4 0 7 -4
7 -10 0 -6 -8 -9 -18 -7 -10 2 -17 12 -16 26 0 12 -5 22 -12 22 -7 0 -14 5
-16 12 -2 6 -10 8 -16 4 -15 -9 -16 -286 -1 -286 5 0 9 -5 9 -11 0 -5 -5 -7
-11 -4 -13 9 -10 -225 3 -242 6 -7 5 -19 -1 -32 -16 -28 -13 -60 5 -79 15 -14
15 -17 0 -27 -10 -8 -16 -27 -16 -55 0 -37 2 -42 20 -37 11 3 23 1 26 -4 5 -9
-11 -13 -31 -9 -5 1 -7 -2 -3 -6 4 -4 3 -13 -4 -21 -6 -7 -8 -16 -5 -19 3 -3
10 4 16 15 7 12 17 18 26 15 8 -4 12 -10 9 -15 -3 -5 -10 -6 -16 -3 -7 4 -8 2
-4 -4 3 -6 -3 -16 -14 -22 -11 -6 -20 -16 -20 -22 0 -7 4 -7 14 1 10 9 16 9
21 1 5 -8 11 -5 20 7 7 10 11 21 8 26 -2 4 2 19 11 32 19 29 20 39 3 32 -7 -3
-21 1 -32 9 -10 8 -15 14 -9 14 5 0 3 4 -5 9 -13 8 -13 12 -1 26 13 15 15 15
20 1 5 -14 8 -14 33 -1 27 14 30 15 44 15 3 0 -2 9 -12 20 -10 11 -13 20 -7
20 6 0 14 -5 17 -10 4 -6 11 -8 16 -5 5 3 6 -1 3 -9 -3 -9 -2 -16 4 -16 6 0
13 6 15 13 3 6 6 2 6 -11 1 -13 -3 -21 -8 -17 -5 3 -16 -2 -24 -10 -9 -9 -17
-11 -19 -4 -2 7 -12 7 -31 0 -29 -11 -37 -31 -12 -31 8 0 15 5 15 12 0 6 3 8
7 4 4 -4 8 -15 8 -24 0 -11 8 -17 22 -17 11 0 24 -3 27 -7 3 -5 3 -6 -1 -3 -3
3 -12 -4 -20 -15 -8 -11 -23 -20 -35 -20 -16 0 -18 -3 -9 -14 8 -10 9 -16 1
-21 -5 -3 -10 -3 -10 0 0 4 -7 0 -15 -9 -10 -10 -13 -24 -9 -41 3 -14 9 -24
12 -21 3 3 11 -6 19 -21 7 -14 12 -27 11 -27 -2 -1 -10 -7 -18 -13 -13 -10
-15 -8 -14 14 1 28 -16 73 -28 73 -4 0 -5 7 -2 15 4 8 1 15 -6 15 -8 0 -10 -9
-6 -26 5 -18 1 -33 -11 -47 -18 -19 -17 -20 4 -8 29 15 38 14 24 -3 -13 -15
-5 -67 12 -78 6 -3 11 -17 13 -30 1 -12 3 -25 3 -28 1 -3 6 2 11 10 8 13 10
12 10 -2 0 -31 -29 -19 -45 18 -8 20 -20 34 -27 32 -17 -6 -22 -279 -6 -290 6
-3 74 -7 150 -7 106 -1 138 1 138 11 0 10 2 10 8 1 11 -18 1593 -17 1604 0 6
9 8 9 8 0 0 -10 116 -13 525 -12 393 0 525 3 525 11 0 9 3 9 12 0 16 -16 90
-16 106 0 9 9 12 9 12 0 0 -7 16 -12 40 -12 l41 0 -2 145 c0 107 -4 143 -12
139 -8 -5 -8 -2 1 7 6 7 12 30 12 51 0 30 -4 38 -17 38 -15 0 -15 -2 -4 -9 8
-5 11 -16 8 -26 -4 -9 -11 -13 -17 -10 -6 4 -8 11 -5 16 3 5 -1 6 -9 3 -18 -7
-22 11 -5 21 6 4 14 17 19 29 7 17 9 17 9 4 1 -28 21 -21 21 7 0 14 -6 25 -13
25 -8 0 -22 9 -32 20 -21 23 -9 26 21 5 20 -13 21 -13 16 10 -2 14 -9 25 -16
25 -6 0 -3 5 6 11 19 11 25 69 8 69 -5 0 -10 5 -10 11 0 5 5 7 10 4 6 -3 10
-1 10 4 0 6 -12 11 -27 12 -16 0 -22 3 -15 6 6 2 12 11 12 19 0 8 5 14 11 14
5 0 8 -4 4 -9 -3 -5 -1 -12 4 -16 6 -3 10 147 10 412 -1 230 -4 409 -9 398 -4
-11 -6 -23 -4 -26 2 -4 -5 -9 -16 -12 -11 -3 -20 -1 -20 5 0 5 -6 6 -12 2 -7
-4 -10 -3 -5 1 4 5 1 15 -6 24 -9 10 -11 25 -6 41 6 21 7 22 9 5 1 -11 1 -24
0 -30 -1 -5 2 -7 5 -3 4 4 16 3 26 -3 19 -10 28 4 10 15 -5 4 -4 16 2 30 7 13
15 22 19 20 5 -3 8 2 8 10 0 9 -7 16 -15 16 -14 0 -19 12 -16 33 2 14 -20 7
-25 -8 -10 -24 -36 -18 -32 8 2 12 -2 27 -9 32 -7 6 -14 24 -16 40 -3 25 -8
30 -28 28 -22 -2 -22 -2 -4 6 11 5 30 7 42 4 15 -3 23 1 26 14 4 16 5 16 6 1
0 -10 8 -18 16 -18 17 0 20 -16 5 -25 -6 -3 -10 -1 -10 4 0 14 -37 14 -45 1
-3 -5 1 -10 9 -10 9 0 13 -7 11 -20 -2 -11 1 -20 6 -20 6 0 7 -9 4 -20 -7 -23
13 -28 21 -5 10 24 32 17 42 -12 6 -20 9 8 8 99 -1 69 -4 124 -8 121 -5 -2 -8
0 -8 6 0 5 4 12 10 16 5 3 9 118 10 287 0 272 0 280 -19 275 -14 -3 -18 -1
-14 10 3 8 12 12 20 9 11 -5 13 7 12 54 -1 36 -6 60 -13 60 -6 0 -4 5 4 10 12
8 13 11 1 19 -9 6 -10 10 -2 16 14 8 12 85 -3 104 -8 11 -8 15 2 18 6 3 12 14
12 24 0 13 -4 18 -12 13 -10 -6 -10 -4 0 7 15 16 16 89 1 89 -7 0 -18 -8 -25
-17 -7 -10 -16 -15 -20 -11 -4 5 0 16 9 26 21 23 21 32 2 32 -8 0 -15 5 -15
10 0 7 6 7 18 2 18 -10 42 -5 42 8 0 4 -9 10 -20 13 -11 3 -20 11 -20 19 0 8
3 9 8 3 4 -5 13 -11 20 -12 9 -2 12 48 12 227 0 161 -3 230 -11 230 -6 0 -9
-7 -6 -14 4 -10 1 -13 -9 -9 -19 7 -14 38 6 38 12 0 16 17 18 83 2 64 0 82
-11 82 -13 0 -17 -11 -18 -55 0 -18 -1 -19 -10 -2 -6 9 -7 22 -4 27 3 5 1 20
-6 32 -6 13 -8 20 -4 16 5 -4 15 -3 22 4 11 9 16 9 22 0 4 -7 8 46 9 118 1 86
-2 130 -9 130 -5 0 -7 -6 -3 -12 6 -10 4 -10 -7 -2 -8 6 -26 14 -40 18 -28 6
-45 31 -28 41 5 4 8 1 7 -7 -2 -8 7 -13 22 -13 20 0 26 6 28 28 2 15 7 27 12
27 4 0 7 -11 5 -25 -1 -14 1 -25 5 -25 4 0 8 36 8 80 1 63 -2 82 -13 86 -8 4
-12 11 -9 16 4 6 9 6 14 -2 4 -7 8 90 9 214 1 195 -1 227 -14 232 -8 3 -12 10
-9 15 3 5 10 7 15 4 5 -4 9 -1 9 4 0 6 -4 11 -10 11 -5 0 -10 11 -10 25 0 14
3 25 8 25 4 0 7 14 8 31 1 21 -2 27 -9 20 -17 -17 -31 -13 -17 4 7 8 9 15 5
15 -4 0 0 11 9 25 9 14 12 25 6 25 -5 0 -10 12 -10 26 0 14 -7 32 -15 40 -8 9
-14 23 -14 32 1 14 2 13 6 -2 4 -15 7 -16 14 -5 7 11 9 11 9 -3 0 -10 5 -18
10 -18 16 0 11 38 -6 48 -15 8 -15 10 0 15 18 7 22 28 5 25 -6 -2 -13 5 -14
15 -3 15 -1 16 11 6 12 -10 15 -10 12 1 -2 8 -12 22 -22 31 -18 15 -18 18 -3
38 l15 23 5 -23 c2 -13 4 117 5 289 1 191 -3 312 -9 312 -5 0 -9 -4 -9 -9 0
-5 -7 -12 -16 -15 -14 -5 -15 -4 -4 9 11 13 -8 15 -174 15 -142 0 -186 -3
-186 -12 0 -10 -2 -10 -9 0 -6 10 -46 13 -167 11 -138 -1 -164 -4 -194 -21
-19 -11 -27 -13 -18 -5 23 18 13 27 -28 27 -24 0 -34 -5 -39 -20 -4 -11 -11
-17 -17 -14 -5 3 -23 -7 -40 -22 l-31 -29 18 28 c10 15 28 30 41 33 38 10 28
22 -17 22 -36 1 -40 -2 -36 -19 3 -10 1 -17 -4 -13 -5 3 -9 12 -9 20 0 9 -11
14 -35 14 -21 0 -35 -5 -35 -12 0 -10 -2 -10 -8 -2 -4 7 -40 12 -89 13 -70 1
-82 -1 -86 -16 -4 -17 -5 -17 -6 0 -2 26 -107 24 -158 -4 l-38 -21 24 21 24
22 -179 -2 c-153 -1 -180 -3 -191 -18 -12 -15 -13 -15 -7 0 5 15 -23 17 -331
18 -214 0 -334 -3 -330 -9 4 -6 -2 -7 -17 -2 -13 5 -49 10 -81 11 -45 2 -64
-2 -80 -16 -17 -14 -19 -14 -9 -1 12 15 7 16 -50 17 -34 0 -69 -5 -77 -12 -12
-9 -13 -9 -7 1 5 9 -5 12 -38 12 -30 0 -46 -4 -46 -12 0 -9 -3 -9 -8 -3 -10
16 -93 20 -90 5 2 -7 -4 -15 -12 -17 -12 -4 -12 -3 -1 5 18 13 5 18 -57 21
-50 2 -52 1 -48 -21 3 -13 5 -23 6 -23 1 0 3 -8 5 -17 2 -10 -1 -18 -7 -18 -6
0 -8 6 -5 14 3 8 3 17 -1 21 -4 4 -8 11 -8 16 -1 5 -2 14 -3 19 0 6 -33 10
-76 10 l-74 0 0 -310z m887 -158 c-21 -4 -21 -7 -8 -33 6 -10 20 -19 30 -19
16 0 20 -7 20 -31 0 -29 -1 -30 -22 -15 -31 22 -36 20 -30 -9 2 -14 9 -22 15
-18 6 3 7 1 3 -6 -12 -19 4 -53 21 -46 9 3 24 -3 35 -15 10 -11 15 -20 10 -20
-5 0 -9 -11 -9 -25 0 -24 15 -29 29 -10 5 6 8 6 8 -2 0 -7 -8 -16 -17 -22 -15
-8 -16 -12 -5 -22 15 -16 16 -49 1 -49 -8 0 -7 -6 2 -17 13 -15 12 -15 -8 -2
-13 8 -23 17 -23 22 0 4 4 6 9 3 5 -3 11 3 14 15 4 15 -1 23 -19 29 -13 5 -24
12 -24 14 0 3 7 3 15 0 8 -4 15 -2 15 4 0 6 -20 10 -45 10 -25 0 -56 7 -68 15
-12 8 -29 13 -37 12 -10 -2 -15 6 -15 26 0 21 5 29 18 29 13 0 17 -5 12 -19
-7 -23 15 -43 35 -31 13 8 13 10 1 10 -8 0 -11 3 -7 7 4 4 16 -3 27 -17 15
-20 21 -22 28 -11 6 9 11 10 15 2 4 -6 12 -9 17 -6 15 10 10 42 -7 49 -8 3
-12 2 -9 -4 3 -6 1 -10 -4 -10 -6 0 -11 7 -11 16 0 13 -3 14 -14 5 -11 -9 -16
-9 -22 0 -4 7 -2 15 4 17 7 2 12 8 12 13 0 6 -4 8 -9 5 -5 -4 -12 0 -14 6 -3
8 -6 6 -6 -4 -1 -10 -7 -18 -14 -18 -8 0 -13 10 -13 21 1 12 -5 24 -11 26 -7
3 -13 -2 -13 -11 0 -8 -5 -18 -12 -22 -7 -5 -8 -3 -3 6 6 10 -1 12 -31 7 -21
-3 -31 -3 -21 -1 9 3 17 9 17 14 0 5 -8 11 -17 13 -14 4 -12 5 5 6 13 1 22 7
22 17 0 8 -4 12 -10 9 -16 -10 -12 11 5 25 12 10 15 10 15 -4 0 -9 5 -16 12
-16 9 0 9 -3 0 -12 -25 -25 -4 -39 28 -18 12 8 12 11 -3 28 -21 23 -22 32 -2
32 8 0 15 -5 15 -11 0 -5 5 -7 11 -4 7 5 8 -4 4 -28 -6 -33 -5 -35 14 -30 24
6 26 14 9 31 -7 7 -8 12 -2 12 6 0 11 14 12 30 0 17 -4 30 -9 30 -6 0 -6 8 1
20 7 13 16 17 28 12 16 -6 16 -7 0 -10z m-548 -163 c26 -28 39 -36 43 -27 4 9
6 9 6 -3 1 -23 -35 -54 -45 -38 -4 7 -3 10 4 5 13 -8 26 10 17 24 -9 14 -45
-7 -45 -27 0 -12 -3 -13 -13 -4 -8 6 -17 8 -20 4 -4 -3 -7 -2 -7 3 0 6 5 15
12 22 9 9 8 12 -6 12 -10 0 -26 -10 -36 -22 -17 -22 -17 -24 -2 -42 16 -18 16
-19 0 -13 -23 8 -30 -27 -13 -67 11 -25 11 -36 3 -44 -9 -9 -9 -12 2 -12 7 0
10 -3 7 -7 -4 -3 2 -12 12 -19 20 -15 34 -61 20 -70 -5 -3 -9 -11 -9 -17 0 -7
7 -3 15 7 8 10 12 23 9 27 -3 5 0 9 5 9 12 0 13 -6 5 -37 -4 -14 -15 -23 -32
-25 -29 -3 -43 -28 -15 -28 17 -1 17 -1 0 -11 -9 -5 -22 -7 -27 -4 -6 3 -10
-1 -10 -10 0 -15 -1 -15 -16 -1 -27 27 -47 20 -42 -14 3 -16 1 -30 -3 -30 -4
0 -9 10 -11 22 -2 14 -12 22 -27 25 -29 4 -41 14 -24 20 8 3 8 11 -2 31 -10
18 -11 30 -4 39 6 6 7 18 3 25 -4 7 2 4 13 -7 15 -15 16 -21 6 -23 -7 -2 -13
-7 -13 -12 0 -5 6 -7 14 -4 11 4 14 -1 12 -20 -2 -15 1 -29 5 -32 5 -3 9 1 9
8 0 10 2 10 8 1 5 -7 13 -9 21 -3 8 4 20 6 28 3 7 -3 13 1 13 10 0 9 -8 13
-22 12 -13 -1 -15 0 -5 2 9 2 17 9 17 16 0 6 7 2 15 -9 14 -18 14 -17 15 12 0
17 -7 37 -15 44 -8 7 -15 9 -15 4 0 -5 -9 5 -20 21 -21 32 -26 65 -10 65 9 0
15 -22 11 -43 -1 -5 3 -6 8 -3 16 10 37 -4 38 -26 3 -35 43 -52 43 -18 0 11
-6 20 -13 20 -12 0 -40 36 -42 55 -1 6 2 20 7 33 4 13 4 22 -2 22 -6 0 -10 11
-10 25 0 14 -6 25 -12 26 -7 0 -3 5 10 11 27 14 23 33 -7 32 -11 0 -21 4 -21
9 0 5 -9 7 -20 4 -11 -3 -23 -1 -26 5 -3 5 -15 8 -25 5 -23 -6 -24 2 -3 31 9
13 11 22 4 22 -6 0 -8 5 -5 11 10 15 19 2 20 -29 0 -18 6 -28 19 -30 16 -3 18
0 12 23 -4 17 -3 24 4 20 5 -3 10 -13 10 -20 0 -20 32 -35 59 -28 16 4 20 11
16 24 -4 11 -3 19 2 18 19 -3 23 2 13 21 -9 16 -8 18 5 14 8 -4 15 -1 15 5 0
21 22 10 60 -30z m1740 -1060 c0 -6 9 -9 19 -6 13 3 22 -3 30 -19 10 -22 8
-24 -14 -24 -14 0 -25 -3 -26 -7 -1 -16 -7 -38 -14 -55 -5 -13 -2 -18 9 -18
10 0 13 -6 9 -16 -3 -8 -12 -13 -20 -9 -11 4 -14 0 -10 -14 3 -14 -2 -21 -17
-26 -21 -6 -20 -6 4 -18 14 -6 27 -14 30 -18 3 -3 18 -9 33 -13 16 -4 25 -11
21 -17 -4 -6 -9 -7 -13 -3 -3 5 -12 10 -20 12 -10 2 -12 -4 -7 -23 9 -35 -3
-31 -16 5 -9 29 -36 37 -30 11 1 -7 -3 -9 -9 -5 -16 10 -29 -16 -23 -46 l6
-25 -17 24 c-15 19 -15 25 -4 32 11 7 9 10 -8 15 -31 9 -29 22 2 19 14 -2 25
1 25 6 0 4 7 6 15 3 8 -4 15 -2 15 4 0 15 -22 21 -42 10 -13 -6 -18 -5 -18 7
0 15 -9 18 -45 16 -14 -1 -11 3 10 12 17 7 29 18 29 23 -1 5 2 8 7 7 12 -4 49
34 41 42 -4 3 1 3 10 0 9 -4 18 0 22 10 9 24 -1 34 -25 28 -16 -5 -20 -2 -17
13 2 12 -2 18 -10 16 -8 -1 -11 2 -7 8 4 7 16 3 32 -10 31 -25 41 -20 35 19
-3 22 -8 28 -20 24 -10 -4 -13 -2 -8 5 9 15 36 16 36 1z m-1503 -1979 c-1 -11
-5 -20 -10 -20 -5 0 -4 -7 3 -15 10 -12 16 -13 27 -4 7 7 11 14 9 17 -3 2 -1
13 5 23 12 24 34 25 24 2 -4 -10 -9 -27 -10 -38 -1 -11 -8 -19 -16 -18 -17 3
-42 -34 -33 -48 4 -8 10 -7 16 2 7 10 8 8 5 -8 -3 -13 -1 -23 4 -23 4 0 5 -8
2 -17 -6 -16 -5 -16 10 -5 12 10 14 19 7 38 -7 18 -6 24 4 24 8 0 13 -8 12
-17 -4 -23 25 -45 40 -32 8 6 14 5 17 -5 4 -11 -7 -16 -46 -21 -35 -5 -52 -4
-55 4 -2 6 -10 11 -18 11 -9 0 -12 5 -9 11 8 12 -2 59 -13 59 -4 0 -16 -14
-27 -30 -21 -32 -40 -38 -48 -17 -4 9 -8 8 -16 -3 -6 -8 -11 -10 -11 -4 0 5 5
15 12 22 9 9 9 15 -1 25 -11 10 -13 9 -8 -5 7 -20 -8 -25 -17 -5 -3 6 -3 1 0
-12 4 -16 3 -21 -5 -17 -31 19 10 69 49 60 18 -4 21 -3 11 4 -14 10 -7 32 10
32 5 0 19 -10 30 -21 17 -17 23 -19 30 -8 9 16 2 32 -12 24 -5 -4 -9 -1 -9 4
0 6 4 11 9 11 5 0 13 9 16 20 3 11 8 20 10 20 2 0 3 -9 2 -20z m758 -151 c4
-6 13 -8 20 -6 8 4 11 -5 9 -29 -2 -26 2 -34 14 -34 12 0 10 -5 -8 -17 -25
-17 -38 -17 -32 1 2 5 -4 4 -12 -3 -15 -13 -32 -66 -27 -88 1 -7 -4 -13 -10
-13 -7 0 -9 -3 -6 -6 4 -4 18 1 32 10 24 16 26 16 32 0 4 -11 -2 -23 -17 -34
-17 -13 -19 -19 -9 -22 19 -7 72 12 86 31 10 14 11 13 6 -6 -3 -13 -10 -23
-15 -23 -5 0 -8 -10 -6 -22 2 -18 -3 -24 -25 -28 -26 -5 -27 -6 -13 -25 20
-26 20 -35 1 -35 -9 0 -18 -6 -21 -14 -3 -8 -12 -12 -20 -9 -8 3 -11 9 -8 14
3 5 9 7 14 4 5 -3 11 -1 14 4 4 5 2 12 -4 16 -5 3 -10 11 -10 16 0 6 5 7 11 4
6 -4 9 0 7 11 -2 13 4 20 20 22 12 2 22 10 22 18 0 17 -40 19 -41 2 0 -10 -2
-10 -6 0 -2 6 -11 12 -19 12 -12 0 -12 -4 -4 -20 9 -16 8 -22 -6 -27 -10 -4
-22 0 -29 10 -7 9 -15 14 -18 10 -4 -3 -7 -2 -7 4 0 6 -10 9 -22 6 -19 -4 -20
-3 -8 6 8 6 25 11 36 11 23 0 40 35 22 46 -5 3 -7 13 -3 22 3 8 1 18 -5 22 -6
4 -8 14 -4 23 3 9 10 14 15 11 5 -3 9 0 9 5 0 6 -4 11 -10 11 -5 0 -7 7 -4 15
4 10 13 13 25 10 13 -4 19 -1 19 9 0 8 5 18 12 22 6 4 8 3 5 -3 -4 -6 -1 -13
6 -16 10 -4 13 2 9 19 -3 20 -9 23 -26 19 -17 -5 -18 -4 -6 5 11 9 12 13 3 17
-15 6 -17 23 -4 23 6 0 13 -5 16 -11z m-660 -930 c4 -11 10 -17 15 -14 5 3 7
-3 5 -14 -2 -11 -1 -29 2 -40 6 -25 37 -20 62 10 12 14 20 16 31 9 13 -8 12
-10 -4 -10 -11 0 -17 -3 -13 -6 3 -4 0 -12 -6 -19 -16 -16 -14 -68 3 -73 7 -3
10 0 6 7 -4 6 -2 11 4 11 6 0 13 -7 16 -15 4 -8 10 -12 15 -9 5 3 9 2 8 -3 -1
-4 1 -15 5 -24 4 -10 -1 -30 -13 -50 -13 -20 -21 -27 -21 -17 0 23 -60 59 -81
48 -9 -5 -18 -7 -21 -5 -3 3 -5 -2 -5 -10 0 -8 7 -15 15 -15 18 0 7 -13 -13
-16 -9 -1 -12 2 -8 8 4 7 -2 9 -15 6 -12 -4 -25 -2 -28 3 -3 5 3 9 13 9 12 0
19 7 19 19 0 22 -34 21 -48 -1 -12 -19 -30 11 -23 38 4 18 1 20 -20 16 -15 -2
-25 0 -25 8 0 7 8 9 22 5 16 -6 20 -4 15 8 -3 8 0 17 6 20 7 3 13 -6 13 -20 3
-36 11 -39 35 -10 11 15 25 27 31 27 6 0 1 -8 -10 -19 -32 -27 -28 -43 11 -38
21 2 32 9 32 19 0 9 4 20 9 25 5 4 6 -6 3 -24 -6 -31 -1 -38 25 -35 3 1 12 -5
18 -13 14 -17 50 -20 50 -4 0 15 -28 41 -32 29 -2 -5 -13 2 -25 15 -12 14 -18
25 -14 25 5 0 6 11 3 25 -5 29 -17 32 -31 8 -9 -15 -12 -15 -20 -4 -5 7 -6 23
-3 35 5 19 4 19 -11 7 -15 -11 -17 -11 -17 2 0 8 6 18 13 20 9 4 9 8 -2 15 -7
5 -10 15 -7 21 5 7 -4 11 -24 11 -19 0 -29 4 -25 10 4 6 11 8 16 4 5 -3 9 -2
8 3 -6 32 25 17 36 -18z m1518 0 c4 -15 2 -19 -9 -15 -10 4 -14 -2 -13 -17 0
-12 3 -16 6 -9 6 16 30 15 40 -2 4 -8 17 -16 28 -19 19 -4 19 -5 -2 -6 -16 -1
-20 -6 -16 -21 3 -12 0 -20 -7 -20 -6 0 -10 -6 -7 -12 6 -19 -11 -48 -29 -48
-12 0 -11 7 6 40 11 21 20 46 20 55 0 27 -24 11 -37 -25 -16 -43 -16 -43 -1
-34 7 4 8 3 4 -4 -4 -7 -16 -12 -27 -12 -11 0 -19 -7 -19 -16 0 -8 -4 -12 -10
-9 -5 3 -10 -4 -10 -15 0 -16 4 -20 16 -16 12 4 14 1 9 -14 -5 -15 -3 -18 10
-14 9 4 13 13 10 24 -3 10 0 17 9 17 8 0 13 -8 11 -19 -4 -20 27 -42 41 -28 5
5 14 3 21 -5 10 -10 1 -14 -43 -20 -31 -4 -58 -4 -62 -1 -3 3 10 6 29 6 26 0
30 3 19 10 -8 5 -30 7 -49 3 -23 -4 -32 -2 -27 5 4 6 4 23 0 37 l-7 27 -28
-31 c-28 -31 -49 -40 -49 -21 0 6 -7 10 -15 10 -13 0 -14 2 -3 14 7 8 15 10
16 5 6 -15 27 -10 44 10 16 19 16 20 -31 14 -31 -3 -51 -1 -55 6 -10 15 -29
14 -20 -1 6 -10 4 -10 -7 0 -18 17 -34 15 -19 -3 6 -8 9 -19 5 -25 -3 -5 -1
-10 6 -10 8 0 5 -7 -6 -20 -10 -11 -22 -17 -27 -14 -6 4 -5 10 3 14 16 11 21
43 7 51 -6 4 -7 12 -4 18 9 14 53 15 61 1 3 -5 21 -10 38 -9 18 0 26 3 20 6
-19 7 -16 20 7 26 12 3 20 0 20 -8 0 -7 9 -15 20 -18 11 -3 20 -1 20 4 0 5 6
9 13 9 6 0 18 4 26 9 12 8 13 12 1 26 -10 13 -15 13 -21 3 -6 -9 -9 -5 -9 11
0 23 1 23 19 7 19 -17 20 -17 30 3 8 14 8 27 0 44 -9 20 -8 28 7 45 11 11 20
21 20 21 1 1 4 -8 7 -20z m277 -84 c0 -8 -7 -15 -16 -15 -13 0 -14 -3 -4 -15
7 -8 10 -21 7 -29 -7 -17 11 -36 35 -36 19 0 23 -16 9 -39 -8 -12 -12 -12 -25
-2 -14 11 -16 11 -16 -4 0 -14 -6 -16 -35 -11 -23 5 -35 3 -35 -4 0 -6 4 -9 8
-6 5 3 7 -12 6 -32 -1 -20 0 -31 3 -24 2 6 11 12 18 12 8 0 12 8 10 18 -2 11
3 19 11 19 19 0 8 -37 -18 -59 -11 -10 -18 -25 -14 -33 3 -8 1 -15 -4 -15 -5
0 -12 -11 -16 -25 -4 -14 -9 -24 -12 -21 -2 3 -13 1 -23 -5 -11 -5 -19 -6 -19
-1 0 5 12 14 26 20 29 14 25 28 -11 34 -13 3 -22 1 -19 -3 3 -5 0 -9 -5 -9 -6
0 -11 11 -11 24 0 26 -22 40 -37 25 -7 -7 -10 0 -9 18 1 15 -2 33 -6 39 -4 6
-2 11 7 11 7 0 14 -3 13 -6 -3 -27 4 -42 16 -38 8 3 18 -5 26 -21 11 -25 13
-25 20 -8 6 19 7 19 12 -2 4 -16 11 -20 23 -16 14 6 13 10 -11 30 -15 13 -21
24 -14 24 19 0 6 11 -17 14 -10 2 -18 12 -19 24 -1 25 6 28 24 10 18 -18 40 6
23 26 -8 10 -9 16 -1 21 6 4 9 1 8 -7 -2 -9 8 -13 32 -13 33 0 35 2 36 35 0
19 -3 43 -8 53 -8 15 -12 16 -26 6 -9 -7 -4 1 12 19 33 35 46 40 46 17z m581
-24 c7 12 9 12 9 -1 0 -13 1 -13 10 0 7 10 10 11 10 2 0 -7 -8 -15 -17 -18
-38 -12 -83 -39 -72 -43 8 -2 7 -6 -2 -12 -11 -7 -9 -10 7 -15 15 -4 20 -11
17 -24 -4 -15 -1 -18 16 -13 12 3 21 12 21 19 0 8 5 14 11 14 5 0 8 4 5 8 -3
5 0 9 7 9 7 0 12 -10 12 -23 0 -12 -2 -22 -5 -21 -14 3 -50 -16 -45 -24 4 -5
1 -9 -5 -9 -8 0 -9 -7 -5 -17 4 -10 8 -26 9 -36 3 -38 56 -43 56 -6 0 38 15
18 18 -24 2 -23 4 -54 6 -69 2 -17 -1 -25 -9 -22 -7 3 -10 22 -8 52 3 44 2 46
-12 28 -8 -11 -15 -25 -15 -32 0 -6 -11 -19 -25 -28 -14 -9 -25 -12 -25 -7 0
5 9 13 20 16 24 8 26 21 5 29 -10 3 -15 -1 -15 -12 0 -14 -2 -14 -9 -3 -5 8
-6 24 -1 37 13 32 -3 38 -34 13 -14 -11 -26 -16 -26 -10 0 6 4 11 10 11 5 0 7
7 3 17 -5 13 -2 15 14 11 31 -8 44 4 27 26 -12 16 -16 17 -31 5 -16 -12 -16
-11 1 8 10 13 22 20 27 18 4 -3 1 8 -7 25 -17 32 -35 32 -29 0 2 -11 0 -20 -6
-20 -5 0 -9 5 -9 10 0 6 -6 10 -12 9 -34 -4 -42 1 -22 15 14 11 15 14 4 14 -8
-1 -24 0 -35 1 -17 1 -18 3 -5 11 13 9 13 11 0 20 -13 9 -13 10 0 10 9 1 6 6
-9 14 -17 9 -20 15 -10 18 18 6 38 -20 39 -49 0 -15 5 -21 14 -17 7 3 12 16
10 30 -3 27 0 28 26 14 13 -7 24 -4 44 11 14 11 25 23 25 27 -3 21 4 33 8 13
4 -19 7 -21 14 -10z m-2651 -57 c0 -3 -10 -15 -22 -26 -13 -11 -17 -17 -11
-13 9 4 11 1 7 -9 -3 -9 -13 -16 -21 -16 -8 0 -11 -4 -8 -10 3 -5 2 -10 -3
-10 -5 0 -9 -7 -9 -15 0 -8 4 -15 8 -15 4 0 16 -3 26 -7 16 -6 16 -5 5 10 -17
20 -10 33 25 42 15 3 32 14 39 23 12 15 12 15 7 -5 -5 -22 -36 -39 -60 -35
-19 4 -16 -18 3 -25 9 -3 20 0 24 7 5 9 9 9 14 1 4 -6 -4 -15 -18 -21 -31 -12
-33 -24 -5 -53 17 -19 19 -19 13 -3 -5 12 -2 23 8 30 8 6 15 15 16 21 0 5 5
11 11 13 7 2 8 -4 4 -15 -3 -10 -3 -15 2 -11 4 4 14 3 21 -3 10 -8 12 -5 11
13 -2 13 -8 32 -14 44 -10 17 -9 23 8 37 10 9 20 13 20 9 1 -4 2 -11 4 -17 1
-5 3 -17 4 -25 1 -11 7 -8 21 10 l21 25 -7 -30 c-10 -43 -20 -50 -38 -24 -20
29 -21 14 -2 -23 13 -24 13 -28 0 -28 -8 0 -14 -5 -14 -11 0 -8 -5 -8 -15 1
-15 12 -20 4 -16 -22 0 -4 -5 -5 -13 -2 -8 3 -17 1 -20 -5 -8 -12 -67 18 -74
38 -3 8 0 11 7 7 6 -4 11 -3 11 2 0 16 -12 21 -29 12 -20 -10 -35 -2 -44 23
-3 9 -12 17 -19 17 -9 0 -8 -3 2 -10 8 -5 11 -10 5 -10 -5 0 -16 4 -24 9 -11
7 -9 10 8 16 11 3 25 3 31 0 5 -3 10 2 10 11 0 21 38 64 57 64 7 0 13 5 13 10
0 6 5 10 10 10 6 0 10 -3 10 -6z m2385 -25 c-3 -4 8 -13 25 -21 18 -8 30 -20
30 -32 0 -19 1 -18 21 3 20 21 22 22 41 5 18 -17 18 -19 3 -30 -10 -8 -12 -13
-5 -16 7 -2 13 -15 13 -30 1 -14 5 -24 10 -21 4 2 7 -1 7 -6 0 -6 -4 -11 -9
-11 -19 0 -33 31 -33 75 l0 47 -22 -21 c-28 -26 -36 -26 -36 -1 0 13 -7 20
-20 20 -17 0 -18 -4 -10 -25 7 -18 6 -23 -4 -19 -9 3 -13 -3 -12 -18 1 -13 -3
-27 -9 -31 -6 -5 0 -7 13 -4 12 3 22 1 22 -5 0 -5 5 -6 11 -3 6 4 8 13 5 20
-8 21 27 28 41 9 20 -27 16 -36 -9 -23 -13 6 -20 8 -16 4 10 -10 -19 -38 -32
-30 -5 3 -10 1 -10 -5 0 -6 -5 -8 -10 -5 -6 4 -8 10 -5 15 3 5 -4 11 -15 15
-23 7 -25 32 -5 59 20 26 19 56 -1 56 -10 0 -14 -6 -11 -14 3 -7 -1 -23 -9
-34 -8 -11 -11 -27 -8 -35 4 -12 0 -14 -15 -10 -16 4 -21 1 -21 -13 0 -13 -3
-15 -8 -7 -5 8 -18 -1 -41 -27 -39 -46 -44 -47 -73 -20 -12 11 -16 20 -9 20 7
0 9 5 6 10 -4 6 -11 8 -16 5 -5 -4 -9 -1 -9 4 0 6 15 11 33 11 24 0 28 3 17
10 -13 8 -12 11 5 24 18 13 21 13 29 -2 13 -24 29 -33 40 -22 11 11 -2 32 -16
24 -7 -5 -8 -2 -4 5 6 9 12 9 25 -3 17 -16 49 -6 37 12 -3 5 1 16 10 23 11 9
14 22 10 43 -4 19 -3 26 3 18 7 -11 9 -11 14 0 3 8 12 15 21 15 8 0 13 -4 11
-8z"/>
</g>
</svg>
