<?xml version="1.0" standalone="no"?>
<!DOCTYPE svg PUBLIC "-//W3C//DTD SVG 20010904//EN"
 "http://www.w3.org/TR/2001/REC-SVG-20010904/DTD/svg10.dtd">
<svg version="1.0" xmlns="http://www.w3.org/2000/svg"
 width="1218.000000pt" height="1280.000000pt" viewBox="0 0 1218.000000 1280.000000"
 preserveAspectRatio="xMidYMid meet">
<g transform="translate(0.000000,1280.000000) scale(0.100000,-0.100000)"
fill="#000000" stroke="none">
<path d="M9675 12775 c-251 -52 -440 -146 -605 -301 -169 -159 -306 -408 -340
-620 -74 -456 181 -953 595 -1161 168 -85 338 -126 525 -126 248 -1 461 62
655 193 287 195 463 502 500 871 11 110 -31 310 -101 484 -66 164 -243 373
-407 479 -149 98 -288 150 -491 186 -142 25 -192 24 -331 -5z"/>
<path d="M6685 11069 c-93 -5 -251 -16 -350 -24 -99 -9 -286 -24 -415 -35
-299 -26 -381 -33 -735 -70 -159 -17 -337 -35 -395 -40 -58 -5 -197 -19 -310
-30 -557 -55 -1000 -88 -1445 -110 -110 -5 -263 -16 -340 -24 -77 -8 -196 -19
-265 -25 -463 -40 -587 -53 -781 -82 -147 -21 -399 -71 -439 -87 -23 -9 -21
-11 30 -25 68 -19 77 -21 395 -57 143 -16 303 -34 355 -40 686 -79 1075 -122
1345 -150 110 -11 243 -25 295 -31 211 -22 450 -44 743 -69 131 -11 352 -33
490 -50 808 -95 1184 -120 1818 -120 430 0 572 7 716 36 89 17 225 60 277 86
67 34 176 154 221 242 38 75 40 84 40 170 0 74 -4 99 -22 136 -88 177 -324
329 -597 384 -93 19 -415 27 -631 15z"/>
<path d="M10750 10059 c-156 -40 -265 -120 -321 -235 l-32 -64 6 -142 c5 -154
22 -234 78 -376 64 -161 218 -413 449 -737 155 -217 225 -326 285 -445 53
-106 105 -251 105 -295 0 -18 -27 -42 -132 -117 -387 -276 -826 -542 -1041
-632 -56 -24 -192 -76 -302 -116 -257 -93 -612 -233 -689 -272 -80 -40 -186
-116 -186 -133 0 -27 128 -38 304 -26 959 68 1473 154 1926 323 311 116 533
249 710 427 124 125 162 183 199 304 35 114 78 427 68 493 -30 207 -64 330
-157 584 -37 102 -85 239 -105 305 -54 179 -83 259 -135 375 -149 336 -404
620 -686 764 -66 34 -74 36 -169 35 -66 0 -126 -7 -175 -20z"/>
<path d="M6530 7738 c-97 -13 -273 -77 -382 -137 -198 -110 -404 -288 -702
-606 -194 -207 -330 -375 -643 -793 -418 -558 -559 -810 -639 -1137 -27 -113
-30 -168 -10 -240 40 -152 124 -232 295 -281 159 -45 330 -26 491 56 120 61
279 198 676 581 516 499 884 925 1186 1375 205 305 310 572 312 794 1 119 -16
179 -62 222 -60 58 -382 184 -447 177 -5 -1 -39 -6 -75 -11z"/>
<path d="M7822 6745 c-302 -53 -646 -270 -922 -580 -425 -478 -1290 -1732
-2295 -3330 -392 -623 -1021 -1620 -1162 -1840 -135 -212 -260 -426 -422 -718
-36 -65 -111 -233 -111 -247 0 -16 17 -12 76 16 44 21 77 51 171 157 266 300
539 563 958 927 438 379 644 573 1300 1220 209 206 605 593 879 860 906 880
1285 1303 1703 1900 229 326 398 662 469 928 73 272 -10 558 -188 648 -119 60
-308 85 -456 59z"/>
<path d="M1062 3560 c-386 -41 -735 -280 -915 -628 -68 -132 -102 -237 -129
-406 -21 -128 -21 -134 -4 -252 9 -66 25 -151 35 -190 151 -582 723 -959 1320
-869 730 110 1183 855 944 1555 -126 371 -443 663 -822 760 -78 19 -255 41
-320 39 -20 -1 -69 -5 -109 -9z m341 -311 c193 -46 398 -183 513 -344 150
-211 203 -489 140 -736 -128 -502 -651 -790 -1141 -628 -330 109 -563 397
-606 749 -19 159 12 332 87 484 139 280 413 469 719 494 90 8 210 0 288 -19z"/>
</g>
</svg>
